<?xml version="1.0" encoding="UTF-8" standalone="no"?>
<!DOCTYPE svg PUBLIC "-//W3C//DTD SVG 1.1//EN" "http://www.w3.org/Graphics/SVG/1.1/DTD/svg11.dtd">
<!-- 由 Microsoft Visio, SVG Export 生成 bp-code-danmaku-object-example.svg 页-1 -->
<svg xmlns="http://www.w3.org/2000/svg" xmlns:xlink="http://www.w3.org/1999/xlink" xmlns:ev="http://www.w3.org/2001/xml-events"
		xmlns:v="http://schemas.microsoft.com/visio/2003/SVGExtensions/" width="4.60949in" height="3.41666in"
		viewBox="0 0 331.883 246" xml:space="preserve" color-interpolation-filters="sRGB" class="st16">
	<v:documentProperties v:langID="2052">
		<v:userDefs>
			<v:ud v:nameU="msvSubprocessMaster" v:prompt="" v:val="VT4(Rectangle)"/>
			<v:ud v:nameU="msvNoAutoConnect" v:val="VT0(1):26"/>
		</v:userDefs>
	</v:documentProperties>

	<style type="text/css">
	<![CDATA[
		.st1 {visibility:visible}
		.st2 {fill:#5b9bd5;fill-opacity:0.22;filter:url(#filter_2);stroke:#5b9bd5;stroke-opacity:0.22}
		.st3 {fill:#5b9bd5;stroke:#c7c8c8;stroke-width:0.25}
		.st4 {fill:#feffff;font-family:Calibri;font-size:0.833336em}
		.st5 {font-size:1em}
		.st6 {fill:#70ad47;fill-opacity:0.25;filter:url(#filter_2);stroke:#70ad47;stroke-opacity:0.25}
		.st7 {fill:#61973d;stroke:#507e31;stroke-width:0.749999}
		.st8 {marker-end:url(#mrkr4-19);stroke:#c55a11;stroke-dasharray:6.99999,4.99999;stroke-linecap:round;stroke-linejoin:round;stroke-width:0.999999}
		.st9 {fill:#c55a11;fill-opacity:1;stroke:#c55a11;stroke-opacity:1;stroke-width:0.28409061919554}
		.st10 {fill:none}
		.st11 {stroke:#5b9bd5;stroke-linecap:round;stroke-linejoin:round;stroke-width:0.999999}
		.st12 {fill:none;stroke:none;stroke-width:0.25}
		.st13 {fill:#000000;font-family:Calibri;font-size:0.833336em}
		.st14 {stroke:#bf9000;stroke-dasharray:3,3;stroke-linecap:round;stroke-linejoin:round;stroke-width:0.999999}
		.st15 {fill:#000000;font-family:Calibri;font-size:0.499992em;font-style:italic}
		.st16 {fill:none;fill-rule:evenodd;font-size:12px;overflow:visible;stroke-linecap:square;stroke-miterlimit:3}
	]]>
	</style>

	<defs id="Markers">
		<g id="lend4">
			<path d="M 2 1 L 0 0 L 2 -1 L 2 1 " style="stroke:none"/>
		</g>
		<marker id="mrkr4-19" class="st9" v:arrowType="4" v:arrowSize="2" v:setback="0" refX="-0" orient="auto"
				markerUnits="strokeWidth" overflow="visible">
			<use xlink:href="#lend4" transform="scale(-3.5200035919233,-3.5200035919233) "/>
		</marker>
	</defs>
	<defs id="Filters">
		<filter id="filter_2">
			<feGaussianBlur stdDeviation="2"/>
		</filter>
	</defs>
	<g v:mID="0" v:index="1" v:groupContext="foregroundPage">
		<v:userDefs>
			<v:ud v:nameU="msvThemeOrder" v:val="VT0(0):26"/>
		</v:userDefs>
		<title>页-1</title>
		<v:pageProperties v:drawingScale="0.0393701" v:pageScale="0.0393701" v:drawingUnits="24" v:shadowOffsetX="8.50393"
				v:shadowOffsetY="-8.50393"/>
		<g id="shape1-1" v:mID="1" v:groupContext="shape" transform="translate(165.596,-96.2027)">
			<title>矩形</title>
			<desc>Code Danmaku Implementation</desc>
			<v:userDefs>
				<v:ud v:nameU="visVersion" v:val="VT0(15):26"/>
			</v:userDefs>
			<v:textBlock v:margins="rect(3.99999,3.99999,3.99999,3.99999)" v:tabSpace="42.5196"/>
			<v:textRect cx="36.8503" cy="228.282" width="73.71" height="35.433"/>
			<g id="shadow1-2" v:groupContext="shadow" v:shadowOffsetX="0.345598" v:shadowOffsetY="-1.97279" v:shadowType="1"
					transform="matrix(1,0,0,1,0.345598,1.97279)" class="st1">
				<rect x="0" y="210.567" width="73.7007" height="35.433" class="st2"/>
			</g>
			<rect x="0" y="210.567" width="73.7007" height="35.433" class="st3"/>
			<text x="5.92" y="225.28" class="st4" v:langID="2052"><v:paragraph v:horizAlign="1"/><v:tabList/>Code Danmaku <tspan
						x="4.07" dy="1.2em" class="st5">Implementation</tspan></text>		</g>
		<g id="shape2-8" v:mID="2" v:groupContext="shape" transform="translate(21.0294,-102.582)">
			<title>矩形.39</title>
			<desc>DisplayObjectContainer</desc>
			<v:userDefs>
				<v:ud v:nameU="visVersion" v:val="VT0(15):26"/>
			</v:userDefs>
			<v:textBlock v:margins="rect(3.99999,3.99999,3.99999,3.99999)" v:tabSpace="42.5196"/>
			<v:textRect cx="53.1495" cy="234.661" width="106.3" height="22.6772"/>
			<g id="shadow2-9" v:groupContext="shadow" v:shadowOffsetX="0.345598" v:shadowOffsetY="-1.97279" v:shadowType="1"
					transform="matrix(1,0,0,1,0.345598,1.97279)" class="st1">
				<rect x="0" y="223.323" width="106.299" height="22.6772" class="st6"/>
			</g>
			<rect x="0" y="223.323" width="106.299" height="22.6772" class="st7"/>
			<text x="5.12" y="237.66" class="st4" v:langID="2052"><v:paragraph v:horizAlign="1"/><v:tabList/>DisplayObjectContainer</text>		</g>
		<g id="shape3-14" v:mID="3" v:groupContext="shape" transform="translate(127.328,-113.916)">
			<title>工作表.40</title>
			<path d="M0 246 L31.23 246 L38.27 246" class="st8"/>
		</g>
		<g id="shape4-20" v:mID="4" v:groupContext="shape" transform="translate(77.7223,-35.2587)">
			<title>矩形.41</title>
			<desc>DCShape #1</desc>
			<v:userDefs>
				<v:ud v:nameU="visVersion" v:val="VT0(15):26"/>
			</v:userDefs>
			<v:textBlock v:margins="rect(3.99999,3.99999,3.99999,3.99999)" v:tabSpace="42.5196"/>
			<v:textRect cx="36.8503" cy="234.661" width="73.71" height="22.6772"/>
			<g id="shadow4-21" v:groupContext="shadow" v:shadowOffsetX="0.345598" v:shadowOffsetY="-1.97279" v:shadowType="1"
					transform="matrix(1,0,0,1,0.345598,1.97279)" class="st1">
				<rect x="0" y="223.323" width="73.7007" height="22.6772" class="st2"/>
			</g>
			<rect x="0" y="223.323" width="73.7007" height="22.6772" class="st3"/>
			<text x="12.52" y="237.66" class="st4" v:langID="2052"><v:paragraph v:horizAlign="1"/><v:tabList/>DCShape #1</text>		</g>
		<g id="shape5-26" v:mID="5" v:groupContext="shape" transform="translate(157.092,-35.2587)">
			<title>矩形.42</title>
			<desc>DCTextField #1</desc>
			<v:userDefs>
				<v:ud v:nameU="visVersion" v:val="VT0(15):26"/>
			</v:userDefs>
			<v:textBlock v:margins="rect(3.99999,3.99999,3.99999,3.99999)" v:tabSpace="42.5196"/>
			<v:textRect cx="36.8503" cy="234.661" width="73.71" height="22.6772"/>
			<g id="shadow5-27" v:groupContext="shadow" v:shadowOffsetX="0.345598" v:shadowOffsetY="-1.97279" v:shadowType="1"
					transform="matrix(1,0,0,1,0.345598,1.97279)" class="st1">
				<rect x="0" y="223.323" width="73.7007" height="22.6772" class="st2"/>
			</g>
			<rect x="0" y="223.323" width="73.7007" height="22.6772" class="st3"/>
			<text x="6.48" y="237.66" class="st4" v:langID="2052"><v:paragraph v:horizAlign="1"/><v:tabList/>DCTextField #1</text>		</g>
		<g id="shape6-32" v:mID="6" v:groupContext="shape" transform="translate(236.462,-35.2587)">
			<title>矩形.43</title>
			<desc>...</desc>
			<v:userDefs>
				<v:ud v:nameU="visVersion" v:val="VT0(15):26"/>
			</v:userDefs>
			<v:textBlock v:margins="rect(3.99999,3.99999,3.99999,3.99999)" v:tabSpace="42.5196"/>
			<v:textRect cx="36.8503" cy="234.661" width="73.71" height="22.6772"/>
			<g id="shadow6-33" v:groupContext="shadow" v:shadowOffsetX="0.345598" v:shadowOffsetY="-1.97279" v:shadowType="1"
					transform="matrix(1,0,0,1,0.345598,1.97279)" class="st1">
				<rect x="0" y="223.323" width="73.7007" height="22.6772" class="st2"/>
			</g>
			<rect x="0" y="223.323" width="73.7007" height="22.6772" class="st3"/>
			<text x="33.06" y="237.66" class="st4" v:langID="2052"><v:paragraph v:horizAlign="1"/><v:tabList/>...</text>		</g>
		<g id="shape7-38" v:mID="7" v:groupContext="shape" transform="translate(448.442,149.796) rotate(90)">
			<title>工作表.45</title>
			<path d="M0 246 L21.26 246 L0 246 Z" class="st10"/>
			<path d="M0 246 L21.26 246" class="st11"/>
		</g>
		<g id="shape8-41" v:mID="8" v:groupContext="shape" transform="translate(249.191,412.57) rotate(169.046)">
			<title>工作表.46</title>
			<path d="M0 246 L89.5 246 L0 246 Z" class="st10"/>
			<path d="M0 246 L89.5 246" class="st11"/>
		</g>
		<g id="shape9-44" v:mID="9" v:groupContext="shape" transform="translate(422.471,281.069) rotate(116.565)">
			<title>工作表.47</title>
			<path d="M0 246 L19.02 246 L0 246 Z" class="st10"/>
			<path d="M0 246 L19.02 246" class="st11"/>
		</g>
		<g id="shape10-47" v:mID="10" v:groupContext="shape" transform="translate(259.855,-68.1463) rotate(13.4957)">
			<title>工作表.48</title>
			<path d="M0 246 L72.88 246 L0 246 Z" class="st10"/>
			<path d="M0 246 L72.88 246" class="st11"/>
		</g>
		<g id="shape11-50" v:mID="11" v:groupContext="shape" transform="translate(199.611,-74.9429)">
			<title>工作表.49</title>
			<desc>Visual children</desc>
			<v:userDefs/>
			<v:textBlock v:margins="rect(3.99999,3.99999,3.99999,3.99999)" v:tabSpace="42.5196"/>
			<v:textRect cx="36.8503" cy="237.496" width="73.71" height="17.0079"/>
			<rect x="0" y="228.992" width="73.7007" height="17.0079" class="st12"/>
			<text x="7.09" y="240.5" class="st13" v:langID="2052"><v:paragraph v:horizAlign="1"/><v:tabList/>Visual children</text>		</g>
		<g id="shape12-53" v:mID="12" v:groupContext="shape" transform="translate(165.596,-151.479)">
			<title>矩形.50</title>
			<desc>BiliBili Danmaku API Container</desc>
			<v:userDefs>
				<v:ud v:nameU="visVersion" v:val="VT0(15):26"/>
			</v:userDefs>
			<v:textBlock v:margins="rect(3.99999,3.99999,3.99999,3.99999)" v:tabSpace="42.5196"/>
			<v:textRect cx="36.8503" cy="228.282" width="73.71" height="35.433"/>
			<g id="shadow12-54" v:groupContext="shadow" v:shadowOffsetX="0.345598" v:shadowOffsetY="-1.97279" v:shadowType="1"
					transform="matrix(1,0,0,1,0.345598,1.97279)" class="st1">
				<rect x="0" y="210.567" width="73.7007" height="35.433" class="st2"/>
			</g>
			<rect x="0" y="210.567" width="73.7007" height="35.433" class="st3"/>
			<text x="4.01" y="225.28" class="st4" v:langID="2052"><v:paragraph v:horizAlign="1"/><v:tabList/>BiliBili Danmaku <tspan
						x="8.98" dy="1.2em" class="st5">API Container</tspan></text>		</g>
		<g id="shape13-60" v:mID="13" v:groupContext="shape" transform="translate(448.442,94.5211) rotate(90)">
			<title>工作表.51</title>
			<path d="M0 246 L19.84 246 L0 246 Z" class="st10"/>
			<path d="M0 246 L19.84 246" class="st14"/>
		</g>
		<g id="shape14-63" v:mID="14" v:groupContext="shape" transform="translate(94.7293,-203.92)">
			<title>矩形.52</title>
			<desc>Display</desc>
			<v:userDefs>
				<v:ud v:nameU="visVersion" v:val="VT0(15):26"/>
			</v:userDefs>
			<v:textBlock v:margins="rect(3.99999,3.99999,3.99999,3.99999)" v:tabSpace="42.5196"/>
			<v:textRect cx="23.7402" cy="234.661" width="47.49" height="22.6772"/>
			<g id="shadow14-64" v:groupContext="shadow" v:shadowOffsetX="0.345598" v:shadowOffsetY="-1.97279" v:shadowType="1"
					transform="matrix(1,0,0,1,0.345598,1.97279)" class="st1">
				<rect x="0" y="223.323" width="47.4802" height="22.6772" class="st2"/>
			</g>
			<rect x="0" y="223.323" width="47.4802" height="22.6772" class="st3"/>
			<text x="9.13" y="237.66" class="st4" v:langID="2052"><v:paragraph v:horizAlign="1"/><v:tabList/>Display</text>		</g>
		<g id="shape15-69" v:mID="15" v:groupContext="shape" transform="translate(150.714,-203.92)">
			<title>矩形.53</title>
			<desc>Global</desc>
			<v:userDefs>
				<v:ud v:nameU="visVersion" v:val="VT0(15):26"/>
			</v:userDefs>
			<v:textBlock v:margins="rect(3.99999,3.99999,3.99999,3.99999)" v:tabSpace="42.5196"/>
			<v:textRect cx="23.7402" cy="234.661" width="47.49" height="22.6772"/>
			<g id="shadow15-70" v:groupContext="shadow" v:shadowOffsetX="0.345598" v:shadowOffsetY="-1.97279" v:shadowType="1"
					transform="matrix(1,0,0,1,0.345598,1.97279)" class="st1">
				<rect x="0" y="223.323" width="47.4802" height="22.6772" class="st2"/>
			</g>
			<rect x="0" y="223.323" width="47.4802" height="22.6772" class="st3"/>
			<text x="10.63" y="237.66" class="st4" v:langID="2052"><v:paragraph v:horizAlign="1"/><v:tabList/>Global</text>		</g>
		<g id="shape16-75" v:mID="16" v:groupContext="shape" transform="translate(206.698,-203.92)">
			<title>矩形.54</title>
			<desc>Utils</desc>
			<v:userDefs>
				<v:ud v:nameU="visVersion" v:val="VT0(15):26"/>
			</v:userDefs>
			<v:textBlock v:margins="rect(3.99999,3.99999,3.99999,3.99999)" v:tabSpace="42.5196"/>
			<v:textRect cx="23.7402" cy="234.661" width="47.49" height="22.6772"/>
			<g id="shadow16-76" v:groupContext="shadow" v:shadowOffsetX="0.345598" v:shadowOffsetY="-1.97279" v:shadowType="1"
					transform="matrix(1,0,0,1,0.345598,1.97279)" class="st1">
				<rect x="0" y="223.323" width="47.4802" height="22.6772" class="st2"/>
			</g>
			<rect x="0" y="223.323" width="47.4802" height="22.6772" class="st3"/>
			<text x="14.61" y="237.66" class="st4" v:langID="2052"><v:paragraph v:horizAlign="1"/><v:tabList/>Utils</text>		</g>
		<g id="shape17-81" v:mID="17" v:groupContext="shape" transform="translate(262.682,-203.92)">
			<title>矩形.55</title>
			<desc>...</desc>
			<v:userDefs>
				<v:ud v:nameU="visVersion" v:val="VT0(15):26"/>
			</v:userDefs>
			<v:textBlock v:margins="rect(3.99999,3.99999,3.99999,3.99999)" v:tabSpace="42.5196"/>
			<v:textRect cx="23.7402" cy="234.661" width="47.49" height="22.6772"/>
			<g id="shadow17-82" v:groupContext="shadow" v:shadowOffsetX="0.345598" v:shadowOffsetY="-1.97279" v:shadowType="1"
					transform="matrix(1,0,0,1,0.345598,1.97279)" class="st1">
				<rect x="0" y="223.323" width="47.4802" height="22.6772" class="st2"/>
			</g>
			<rect x="0" y="223.323" width="47.4802" height="22.6772" class="st3"/>
			<text x="19.95" y="237.66" class="st4" v:langID="2052"><v:paragraph v:horizAlign="1"/><v:tabList/>...</text>		</g>
		<g id="shape18-87" v:mID="18" v:groupContext="shape" transform="translate(153.614,300.188) rotate(-168.551)">
			<title>工作表.56</title>
			<path d="M0 246 L85.68 246 L0 246 Z" class="st10"/>
			<path d="M0 246 L85.68 246" class="st11"/>
		</g>
		<g id="shape19-90" v:mID="19" v:groupContext="shape" transform="translate(74.7123,269.321) rotate(-148.717)">
			<title>工作表.57</title>
			<path d="M0 246 L32.75 246 L0 246 Z" class="st10"/>
			<path d="M0 246 L32.75 246" class="st11"/>
		</g>
		<g id="shape20-93" v:mID="20" v:groupContext="shape" transform="translate(74.7108,-151.144) rotate(-31.2827)">
			<title>工作表.58</title>
			<path d="M0 246 L32.75 246 L0 246 Z" class="st10"/>
			<path d="M0 246 L32.75 246" class="st11"/>
		</g>
		<g id="shape21-96" v:mID="21" v:groupContext="shape" transform="translate(153.616,-182.012) rotate(-11.4493)">
			<title>工作表.59</title>
			<path d="M0 246 L85.68 246 L0 246 Z" class="st10"/>
			<path d="M0 246 L85.68 246" class="st11"/>
		</g>
		<g id="shape22-99" v:mID="22" v:groupContext="shape" transform="translate(202.446,-132.77)">
			<title>工作表.60</title>
			<desc>Mapping 1:1</desc>
			<v:userDefs/>
			<v:textBlock v:margins="rect(3.99999,3.99999,3.99999,3.99999)" v:tabSpace="42.5196"/>
			<v:textRect cx="36.8503" cy="237.496" width="73.71" height="17.0079"/>
			<rect x="0" y="228.992" width="73.7007" height="17.0079" class="st12"/>
			<text x="11.26" y="240.5" class="st13" v:langID="2052"><v:paragraph v:horizAlign="1"/><v:tabList/>Mapping 1:1</text>		</g>
		<g id="shape23-102" v:mID="23" v:groupContext="shape" transform="translate(61.4223,-18.25)">
			<title>工作表.61</title>
			<desc>DC: Danmaku-Created</desc>
			<v:userDefs/>
			<v:textBlock v:margins="rect(3.99999,3.99999,3.99999,3.99999)" v:tabSpace="42.5196"/>
			<v:textRect cx="53.1495" cy="237.496" width="106.3" height="17.0079"/>
			<rect x="0" y="228.992" width="106.299" height="17.0079" class="st12"/>
			<text x="26.03" y="239.3" class="st15" v:langID="2052"><v:paragraph v:horizAlign="1"/><v:tabList/>DC: Danmaku-Created</text>		</g>
	</g>
</svg>
