<?xml version="1.0" encoding="UTF-8" standalone="no"?>
<!DOCTYPE svg PUBLIC "-//W3C//DTD SVG 1.1//EN" "http://www.w3.org/Graphics/SVG/1.1/DTD/svg11.dtd">
<!-- 由 Microsoft Visio, SVG Export 生成 bp-new-main-structure.svg 页-1 -->
<svg xmlns="http://www.w3.org/2000/svg" xmlns:xlink="http://www.w3.org/1999/xlink" xmlns:ev="http://www.w3.org/2001/xml-events"
		xmlns:v="http://schemas.microsoft.com/visio/2003/SVGExtensions/" width="8.03468in" height="3.76304in"
		viewBox="0 0 578.497 270.939" xml:space="preserve" color-interpolation-filters="sRGB" class="st9">
	<v:documentProperties v:langID="2052">
		<v:userDefs>
			<v:ud v:nameU="msvSubprocessMaster" v:prompt="" v:val="VT4(Rectangle)"/>
			<v:ud v:nameU="msvNoAutoConnect" v:val="VT0(1):26"/>
		</v:userDefs>
	</v:documentProperties>

	<style type="text/css">
	<![CDATA[
		.st1 {visibility:visible}
		.st2 {fill:#5b9bd5;fill-opacity:0.22;filter:url(#filter_2);stroke:#5b9bd5;stroke-opacity:0.22}
		.st3 {fill:#5b9bd5;stroke:#c7c8c8;stroke-width:0.25}
		.st4 {fill:#feffff;font-family:Calibri;font-size:0.833336em}
		.st5 {font-size:1em}
		.st6 {fill:none;stroke:none;stroke-width:1}
		.st7 {fill:none}
		.st8 {stroke:#5b9bd5;stroke-linecap:round;stroke-linejoin:round;stroke-width:0.999999}
		.st9 {fill:none;fill-rule:evenodd;font-size:12px;overflow:visible;stroke-linecap:square;stroke-miterlimit:3}
	]]>
	</style>

	<defs id="Filters">
		<filter id="filter_2">
			<feGaussianBlur stdDeviation="2"/>
		</filter>
	</defs>
	<g v:mID="0" v:index="1" v:groupContext="foregroundPage">
		<v:userDefs>
			<v:ud v:nameU="msvThemeOrder" v:val="VT0(0):26"/>
		</v:userDefs>
		<title>页-1</title>
		<v:pageProperties v:drawingScale="0.0393701" v:pageScale="0.0393701" v:drawingUnits="24" v:shadowOffsetX="8.50393"
				v:shadowOffsetY="-8.50393"/>
		<g id="shape1-1" v:mID="1" v:groupContext="shape" transform="translate(230.792,-216.104)">
			<title>矩形</title>
			<desc>Bulletproof</desc>
			<v:userDefs>
				<v:ud v:nameU="visVersion" v:val="VT0(15):26"/>
			</v:userDefs>
			<v:textBlock v:margins="rect(3.99999,3.99999,3.99999,3.99999)" v:tabSpace="42.5196"/>
			<v:textRect cx="35.4329" cy="253.221" width="70.87" height="35.433"/>
			<g id="shadow1-2" v:groupContext="shadow" v:shadowOffsetX="0.345598" v:shadowOffsetY="-1.97279" v:shadowType="1"
					transform="matrix(1,0,0,1,0.345598,1.97279)" class="st1">
				<rect x="0" y="235.506" width="70.866" height="35.433" class="st2"/>
			</g>
			<rect x="0" y="235.506" width="70.866" height="35.433" class="st3"/>
			<text x="12.46" y="256.22" class="st4" v:langID="2052"><v:paragraph v:horizAlign="1"/><v:tabList/>Bulletproof</text>		</g>
		<g id="shape2-7" v:mID="2" v:groupContext="shape" transform="translate(131.58,-136.734)">
			<title>矩形.10</title>
			<desc>Danmaku Coordinator</desc>
			<v:userDefs>
				<v:ud v:nameU="visVersion" v:val="VT0(15):26"/>
			</v:userDefs>
			<v:textBlock v:margins="rect(3.99999,3.99999,3.99999,3.99999)" v:tabSpace="42.5196"/>
			<v:textRect cx="35.4329" cy="253.221" width="70.87" height="35.433"/>
			<g id="shadow2-8" v:groupContext="shadow" v:shadowOffsetX="0.345598" v:shadowOffsetY="-1.97279" v:shadowType="1"
					transform="matrix(1,0,0,1,0.345598,1.97279)" class="st1">
				<rect x="0" y="235.506" width="70.866" height="35.433" class="st2"/>
			</g>
			<rect x="0" y="235.506" width="70.866" height="35.433" class="st3"/>
			<text x="16.05" y="250.22" class="st4" v:langID="2052"><v:paragraph v:horizAlign="1"/><v:tabList/>Danmaku <tspan
						x="10.9" dy="1.2em" class="st5">Coordinator</tspan></text>		</g>
		<g id="shape3-14" v:mID="3" v:groupContext="shape" transform="translate(358.351,-136.734)">
			<title>矩形.11</title>
			<desc>BiliBili Danmaku API</desc>
			<v:userDefs>
				<v:ud v:nameU="visVersion" v:val="VT0(15):26"/>
			</v:userDefs>
			<v:textBlock v:margins="rect(3.99999,3.99999,3.99999,3.99999)" v:tabSpace="42.5196"/>
			<v:textRect cx="35.4329" cy="253.221" width="70.87" height="35.433"/>
			<g id="shadow3-15" v:groupContext="shadow" v:shadowOffsetX="0.345598" v:shadowOffsetY="-1.97279" v:shadowType="1"
					transform="matrix(1,0,0,1,0.345598,1.97279)" class="st1">
				<rect x="0" y="235.506" width="70.866" height="35.433" class="st2"/>
			</g>
			<rect x="0" y="235.506" width="70.866" height="35.433" class="st3"/>
			<text x="23.11" y="250.22" class="st4" v:langID="2052"><v:paragraph v:horizAlign="1"/><v:tabList/>BiliBili <tspan
						x="8.18" dy="1.2em" class="st5">Danmaku API</tspan></text>		</g>
		<g id="group4-21" transform="translate(375.936,302.562) rotate(156.114)" v:mID="4" v:groupContext="group">
			<title>工作表.16</title>
			<g id="shape5-22" v:mID="5" v:groupContext="shape">
				<title>工作表.5</title>
				<path d="M0 270.94 L108.51 270.94 L0 270.94 Z" class="st6"/>
			</g>
			<g id="shape6-24" v:mID="6" v:groupContext="shape">
				<title>工作表.6</title>
				<path d="M0 270.94 L108.51 270.94 L0 270.94 Z" class="st7"/>
				<path d="M0 270.94 L108.51 270.94" class="st8"/>
			</g>
		</g>
		<g id="shape10-27" v:mID="10" v:groupContext="shape" transform="translate(21.0295,-80.0407)">
			<title>矩形.18</title>
			<desc>Simple Danmaku Provider</desc>
			<v:userDefs>
				<v:ud v:nameU="visVersion" v:val="VT0(15):26"/>
			</v:userDefs>
			<v:textBlock v:margins="rect(3.99999,3.99999,3.99999,3.99999)" v:tabSpace="42.5196"/>
			<v:textRect cx="39.6848" cy="253.221" width="79.38" height="35.433"/>
			<g id="shadow10-28" v:groupContext="shadow" v:shadowOffsetX="0.345598" v:shadowOffsetY="-1.97279" v:shadowType="1"
					transform="matrix(1,0,0,1,0.345598,1.97279)" class="st1">
				<rect x="0" y="235.506" width="79.37" height="35.433" class="st2"/>
			</g>
			<rect x="0" y="235.506" width="79.37" height="35.433" class="st3"/>
			<text x="5.47" y="250.22" class="st4" v:langID="2052"><v:paragraph v:horizAlign="1"/><v:tabList/>Simple Danmaku <tspan
						x="22.46" dy="1.2em" class="st5">Provider</tspan></text>		</g>
		<g id="group11-34" transform="translate(220.147,399.877) rotate(168.69)" v:mID="11" v:groupContext="group">
			<title>工作表.19</title>
			<g id="shape12-35" v:mID="12" v:groupContext="shape">
				<title>工作表.12</title>
				<path d="M0 270.94 L108.4 270.94 L0 270.94 Z" class="st6"/>
			</g>
			<g id="shape13-37" v:mID="13" v:groupContext="shape">
				<title>工作表.13</title>
				<path d="M0 270.94 L108.4 270.94 L0 270.94 Z" class="st7"/>
				<path d="M0 270.94 L108.4 270.94" class="st8"/>
			</g>
		</g>
		<g id="shape14-40" v:mID="14" v:groupContext="shape" transform="translate(106.068,-80.0407)">
			<title>矩形.20</title>
			<desc>Mode 7 Danmaku Provider</desc>
			<v:userDefs>
				<v:ud v:nameU="visVersion" v:val="VT0(15):26"/>
			</v:userDefs>
			<v:textBlock v:margins="rect(3.99999,3.99999,3.99999,3.99999)" v:tabSpace="42.5196"/>
			<v:textRect cx="42.5195" cy="253.221" width="85.04" height="35.433"/>
			<g id="shadow14-41" v:groupContext="shadow" v:shadowOffsetX="0.345598" v:shadowOffsetY="-1.97279" v:shadowType="1"
					transform="matrix(1,0,0,1,0.345598,1.97279)" class="st1">
				<rect x="0" y="235.506" width="85.0393" height="35.433" class="st2"/>
			</g>
			<rect x="0" y="235.506" width="85.0393" height="35.433" class="st3"/>
			<text x="6.31" y="250.22" class="st4" v:langID="2052"><v:paragraph v:horizAlign="1"/><v:tabList/>Mode 7 Danmaku <tspan
						x="25.29" dy="1.2em" class="st5">Provider</tspan></text>		</g>
		<g id="shape15-47" v:mID="15" v:groupContext="shape" transform="translate(196.777,-80.0407)">
			<title>矩形.21</title>
			<desc>Code Danmaku Provider</desc>
			<v:userDefs>
				<v:ud v:nameU="visVersion" v:val="VT0(15):26"/>
			</v:userDefs>
			<v:textBlock v:margins="rect(3.99999,3.99999,3.99999,3.99999)" v:tabSpace="42.5196"/>
			<v:textRect cx="39.6848" cy="253.221" width="79.38" height="35.433"/>
			<g id="shadow15-48" v:groupContext="shadow" v:shadowOffsetX="0.345598" v:shadowOffsetY="-1.97279" v:shadowType="1"
					transform="matrix(1,0,0,1,0.345598,1.97279)" class="st1">
				<rect x="0" y="235.506" width="79.37" height="35.433" class="st2"/>
			</g>
			<rect x="0" y="235.506" width="79.37" height="35.433" class="st3"/>
			<text x="8.75" y="250.22" class="st4" v:langID="2052"><v:paragraph v:horizAlign="1"/><v:tabList/>Code Danmaku <tspan
						x="22.46" dy="1.2em" class="st5">Provider</tspan></text>		</g>
		<g id="group16-54" transform="translate(371.753,311.649) rotate(130.914)" v:mID="16" v:groupContext="group">
			<title>工作表.22</title>
			<g id="shape17-55" v:mID="17" v:groupContext="shape">
				<title>工作表.17</title>
				<path d="M0 270.94 L28.13 270.94 L0 270.94 Z" class="st6"/>
			</g>
			<g id="shape18-57" v:mID="18" v:groupContext="shape">
				<title>工作表.18</title>
				<path d="M0 270.94 L28.13 270.94 L0 270.94 Z" class="st7"/>
				<path d="M0 270.94 L28.13 270.94" class="st8"/>
			</g>
		</g>
		<g id="group19-60" transform="translate(246.32,-124.862) rotate(17.0205)" v:mID="19" v:groupContext="group">
			<title>工作表.23</title>
			<g id="shape20-61" v:mID="20" v:groupContext="shape">
				<title>工作表.20</title>
				<path d="M0 270.94 L72.63 270.94 L0 270.94 Z" class="st6"/>
			</g>
			<g id="shape21-63" v:mID="21" v:groupContext="shape">
				<title>工作表.21</title>
				<path d="M0 270.94 L72.63 270.94 L0 270.94 Z" class="st7"/>
				<path d="M0 270.94 L72.63 270.94" class="st8"/>
			</g>
		</g>
		<g id="shape22-66" v:mID="22" v:groupContext="shape" transform="translate(310.162,-83.9382)">
			<title>矩形.25</title>
			<desc>Display</desc>
			<v:userDefs>
				<v:ud v:nameU="visVersion" v:val="VT0(15):26"/>
			</v:userDefs>
			<v:textBlock v:margins="rect(3.99999,3.99999,3.99999,3.99999)" v:tabSpace="42.5196"/>
			<v:textRect cx="27.6377" cy="257.12" width="55.28" height="27.6378"/>
			<g id="shadow22-67" v:groupContext="shadow" v:shadowOffsetX="0.345598" v:shadowOffsetY="-1.97279" v:shadowType="1"
					transform="matrix(1,0,0,1,0.345598,1.97279)" class="st1">
				<rect x="0" y="243.301" width="55.2755" height="27.6378" class="st2"/>
			</g>
			<rect x="0" y="243.301" width="55.2755" height="27.6378" class="st3"/>
			<text x="13.03" y="260.12" class="st4" v:langID="2052"><v:paragraph v:horizAlign="1"/><v:tabList/>Display</text>		</g>
		<g id="shape23-72" v:mID="23" v:groupContext="shape" transform="translate(373.942,-83.9382)">
			<title>矩形.28</title>
			<desc>Utils</desc>
			<v:userDefs>
				<v:ud v:nameU="visVersion" v:val="VT0(15):26"/>
			</v:userDefs>
			<v:textBlock v:margins="rect(3.99999,3.99999,3.99999,3.99999)" v:tabSpace="42.5196"/>
			<v:textRect cx="27.6377" cy="257.12" width="55.28" height="27.6378"/>
			<g id="shadow23-73" v:groupContext="shadow" v:shadowOffsetX="0.345598" v:shadowOffsetY="-1.97279" v:shadowType="1"
					transform="matrix(1,0,0,1,0.345598,1.97279)" class="st1">
				<rect x="0" y="243.301" width="55.2755" height="27.6378" class="st2"/>
			</g>
			<rect x="0" y="243.301" width="55.2755" height="27.6378" class="st3"/>
			<text x="18.5" y="260.12" class="st4" v:langID="2052"><v:paragraph v:horizAlign="1"/><v:tabList/>Utils</text>		</g>
		<g id="shape24-78" v:mID="24" v:groupContext="shape" transform="translate(437.722,-83.9382)">
			<title>矩形.29</title>
			<desc>Storage</desc>
			<v:userDefs>
				<v:ud v:nameU="visVersion" v:val="VT0(15):26"/>
			</v:userDefs>
			<v:textBlock v:margins="rect(3.99999,3.99999,3.99999,3.99999)" v:tabSpace="42.5196"/>
			<v:textRect cx="27.6377" cy="257.12" width="55.28" height="27.6378"/>
			<g id="shadow24-79" v:groupContext="shadow" v:shadowOffsetX="0.345598" v:shadowOffsetY="-1.97279" v:shadowType="1"
					transform="matrix(1,0,0,1,0.345598,1.97279)" class="st1">
				<rect x="0" y="243.301" width="55.2755" height="27.6378" class="st2"/>
			</g>
			<rect x="0" y="243.301" width="55.2755" height="27.6378" class="st3"/>
			<text x="12.05" y="260.12" class="st4" v:langID="2052"><v:paragraph v:horizAlign="1"/><v:tabList/>Storage</text>		</g>
		<g id="shape25-84" v:mID="25" v:groupContext="shape" transform="translate(501.501,-83.9382)">
			<title>矩形.30</title>
			<desc>...</desc>
			<v:userDefs>
				<v:ud v:nameU="visVersion" v:val="VT0(15):26"/>
			</v:userDefs>
			<v:textBlock v:margins="rect(3.99999,3.99999,3.99999,3.99999)" v:tabSpace="42.5196"/>
			<v:textRect cx="27.6377" cy="257.12" width="55.28" height="27.6378"/>
			<g id="shadow25-85" v:groupContext="shadow" v:shadowOffsetX="0.345598" v:shadowOffsetY="-1.97279" v:shadowType="1"
					transform="matrix(1,0,0,1,0.345598,1.97279)" class="st1">
				<rect x="0" y="243.301" width="55.2755" height="27.6378" class="st2"/>
			</g>
			<rect x="0" y="243.301" width="55.2755" height="27.6378" class="st3"/>
			<text x="23.85" y="260.12" class="st4" v:langID="2052"><v:paragraph v:horizAlign="1"/><v:tabList/>...</text>		</g>
		<g id="group26-90" transform="translate(504.833,381.334) rotate(155.802)" v:mID="26" v:groupContext="group">
			<title>工作表.31</title>
			<g id="shape27-91" v:mID="27" v:groupContext="shape">
				<title>工作表.27</title>
				<path d="M0 270.94 L61.38 270.94 L0 270.94 Z" class="st6"/>
			</g>
			<g id="shape28-93" v:mID="28" v:groupContext="shape">
				<title>工作表.28</title>
				<path d="M0 270.94 L61.38 270.94 L0 270.94 Z" class="st7"/>
				<path d="M0 270.94 L61.38 270.94" class="st8"/>
			</g>
		</g>
		<g id="group29-96" transform="translate(652.582,54.0154) rotate(72.7839)" v:mID="29" v:groupContext="group">
			<title>工作表.32</title>
			<g id="shape30-97" v:mID="30" v:groupContext="shape">
				<title>工作表.30</title>
				<path d="M0 270.94 L26.34 270.94 L0 270.94 Z" class="st6"/>
			</g>
			<g id="shape31-99" v:mID="31" v:groupContext="shape">
				<title>工作表.31</title>
				<path d="M0 270.94 L26.34 270.94 L0 270.94 Z" class="st7"/>
				<path d="M0 270.94 L26.34 270.94" class="st8"/>
			</g>
		</g>
		<g id="group32-102" transform="translate(483.626,-121.399) rotate(19.3658)" v:mID="32" v:groupContext="group">
			<title>工作表.33</title>
			<g id="shape33-103" v:mID="33" v:groupContext="shape">
				<title>工作表.33</title>
				<path d="M0 270.94 L75.87 270.94 L0 270.94 Z" class="st6"/>
			</g>
			<g id="shape34-105" v:mID="34" v:groupContext="shape">
				<title>工作表.34</title>
				<path d="M0 270.94 L75.87 270.94 L0 270.94 Z" class="st7"/>
				<path d="M0 270.94 L75.87 270.94" class="st8"/>
			</g>
		</g>
		<g id="group35-108" transform="translate(443.293,-132.167) rotate(10.5291)" v:mID="35" v:groupContext="group">
			<title>工作表.34</title>
			<g id="shape36-109" v:mID="36" v:groupContext="shape">
				<title>工作表.36</title>
				<path d="M0 270.94 L137.67 270.94 L0 270.94 Z" class="st6"/>
			</g>
			<g id="shape37-111" v:mID="37" v:groupContext="shape">
				<title>工作表.37</title>
				<path d="M0 270.94 L137.67 270.94 L0 270.94 Z" class="st7"/>
				<path d="M0 270.94 L137.67 270.94" class="st8"/>
			</g>
		</g>
		<g id="shape38-114" v:mID="38" v:groupContext="shape" transform="translate(247.8,-23.3478)">
			<title>矩形.35</title>
			<desc>Code Danmaku Layout Manager</desc>
			<v:userDefs>
				<v:ud v:nameU="visVersion" v:val="VT0(15):26"/>
			</v:userDefs>
			<v:textBlock v:margins="rect(3.99999,3.99999,3.99999,3.99999)" v:tabSpace="42.5196"/>
			<v:textRect cx="39.6848" cy="253.221" width="79.38" height="35.433"/>
			<g id="shadow38-115" v:groupContext="shadow" v:shadowOffsetX="0.345598" v:shadowOffsetY="-1.97279" v:shadowType="1"
					transform="matrix(1,0,0,1,0.345598,1.97279)" class="st1">
				<rect x="0" y="235.506" width="79.37" height="35.433" class="st2"/>
			</g>
			<rect x="0" y="235.506" width="79.37" height="35.433" class="st3"/>
			<text x="8.75" y="250.22" class="st4" v:langID="2052"><v:paragraph v:horizAlign="1"/><v:tabList/>Code Danmaku <tspan
						x="6.58" dy="1.2em" class="st5">Layout Manager</tspan></text>		</g>
		<g id="shape39-121" v:mID="39" v:groupContext="shape" transform="translate(157.092,-23.3478)">
			<title>矩形.36</title>
			<desc>Code Danmaku Implementation</desc>
			<v:userDefs>
				<v:ud v:nameU="visVersion" v:val="VT0(15):26"/>
			</v:userDefs>
			<v:textBlock v:margins="rect(3.99999,3.99999,3.99999,3.99999)" v:tabSpace="42.5196"/>
			<v:textRect cx="39.6848" cy="253.221" width="79.38" height="35.433"/>
			<g id="shadow39-122" v:groupContext="shadow" v:shadowOffsetX="0.345598" v:shadowOffsetY="-1.97279" v:shadowType="1"
					transform="matrix(1,0,0,1,0.345598,1.97279)" class="st1">
				<rect x="0" y="235.506" width="79.37" height="35.433" class="st2"/>
			</g>
			<rect x="0" y="235.506" width="79.37" height="35.433" class="st3"/>
			<text x="8.75" y="250.22" class="st4" v:langID="2052"><v:paragraph v:horizAlign="1"/><v:tabList/>Code Danmaku <tspan
						x="6.9" dy="1.2em" class="st5">Implementation</tspan></text>		</g>
		<g id="group40-128" transform="translate(364.4,429.721) rotate(151.821)" v:mID="40" v:groupContext="group">
			<title>工作表.37</title>
			<g id="shape41-129" v:mID="41" v:groupContext="shape">
				<title>工作表.41</title>
				<path d="M0 270.94 L45.02 270.94 L0 270.94 Z" class="st6"/>
			</g>
			<g id="shape42-131" v:mID="42" v:groupContext="shape">
				<title>工作表.42</title>
				<path d="M0 270.94 L45.02 270.94 L0 270.94 Z" class="st7"/>
				<path d="M0 270.94 L45.02 270.94" class="st8"/>
			</g>
		</g>
		<g id="group43-134" transform="translate(340.667,-59.1943) rotate(22.6199)" v:mID="43" v:groupContext="group">
			<title>工作表.38</title>
			<g id="shape44-135" v:mID="44" v:groupContext="shape">
				<title>工作表.44</title>
				<path d="M0 270.94 L55.28 270.94 L0 270.94 Z" class="st6"/>
			</g>
			<g id="shape45-137" v:mID="45" v:groupContext="shape">
				<title>工作表.45</title>
				<path d="M0 270.94 L55.28 270.94 L0 270.94 Z" class="st7"/>
				<path d="M0 270.94 L55.28 270.94" class="st8"/>
			</g>
		</g>
	</g>
</svg>
